# xmcd
#
# Track frame offsets: 
#        150
#        16715
#        38476
#        60976
#        83033
#        109783
#        125868
#        140448
#        157913
#        176676
#        195150
#        211060
#        231184
#        247814
#        263903
#
# Disc length: 3807 seconds
#
# Revision: 2
# Processed by: cddbd v1.5.2PL0 Copyright (c) Steve Scherf et al.
# Submitted via: ExactAudioCopyFreeDBPlugin 1.0
#
DISCID=b40edd0f
DTITLE=Daniel Wirtz - Blind Date im Wirtz-Haus
DYEAR=2017
DGENRE=Rock
TTITLE0=Andreas Gabalier and Daniel Wirtz - Where Did You Sleep Last Nig
TTITLE0=ht
TTITLE1=Henning Wehland and Daniel Wirtz - Don't Let The Sun Go Down On 
TTITLE1=Me
TTITLE2=Max Mutzke and Daniel Wirtz - Everybody Hurts
TTITLE3=Glasperlenspiel and Daniel Wirtz - Mr. Brightside
TTITLE4=Wolfgang Niedecken and Daniel Wirtz - Sympathy For The Devil
TTITLE5=Ella Endlich and Daniel Wirtz - The Look Of Love
TTITLE6=Kai Wingenfelder and Daniel Wirtz - Iris
TTITLE7=Andreas Gabalier - Hulapalu
TTITLE8=Henning Wehland - Tanz um dein Leben
TTITLE9=Max Mutzke - So viel mehr
TTITLE10=Glasperlenspiel - Für immer
TTITLE11=Wolfgang Niedecken - Nix wie bessher
TTITLE12=Ella Endlich - Ein goldener Käfig
TTITLE13=Kai Wingenfelder - Dance On The Frontline
TTITLE14=All Along The Watchtower
EXTD=
EXTT0=
EXTT1=
EXTT2=
EXTT3=
EXTT4=
EXTT5=
EXTT6=
EXTT7=
EXTT8=
EXTT9=
EXTT10=
EXTT11=
EXTT12=
EXTT13=
EXTT14=
PLAYORDER=
